<?xml version="1.0" encoding="utf-8"?>
<!-- Generator: Adobe Illustrator 21.0.0, SVG Export Plug-In . SVG Version: 6.00 Build 0)  -->
<svg version="1.1" id="Layer_1" xmlns="http://www.w3.org/2000/svg" xmlns:xlink="http://www.w3.org/1999/xlink" x="0px" y="0px"
	 viewBox="0 0 886.4 602.9" style="enable-background:new 0 0 886.4 602.9;" xml:space="preserve">
<style type="text/css">
	.st0{fill:none;stroke:#000000;stroke-width:0.9;}
	.st1{fill:#FFFFFF;stroke:#000000;stroke-miterlimit:10;}
</style>
<g transform="translate(22.5000185, 22.5000185) ">
	<polygon class="st0" points="-14.5,-14.5 31.4,-14.5 31.4,-6 76.2,-6 76.2,-14.5 110.8,-14.5 110.8,-6 144.2,-6 144.2,-14.5 
		178.8,-14.5 178.8,-6 223.6,-6 223.6,-14.5 269.5,-14.5 269.5,31.4 261,31.4 261,76.2 269.5,76.2 269.5,110.8 261,110.8 261,144.2 
		269.5,144.2 269.5,178.8 261,178.8 261,223.6 269.5,223.6 269.5,269.5 223.6,269.5 223.6,261 178.8,261 178.8,269.5 144.2,269.5 
		144.2,261 110.8,261 110.8,269.5 76.2,269.5 76.2,261 31.4,261 31.4,269.5 -14.5,269.5 -14.5,223.6 -6,223.6 -6,178.8 -14.5,178.8 
		-14.5,144.2 -6,144.2 -6,110.8 -14.5,110.8 -14.5,76.2 -6,76.2 -6,31.4 -14.5,31.4 	"/>
</g>
<g transform="translate(377.5396805, 22.5000185) ">
	<polygon class="st0" points="-75.5,-14.5 -29.6,-14.5 -29.6,-6 15.2,-6 15.2,-14.5 49.8,-14.5 49.8,-6 83.2,-6 83.2,-14.5 
		117.8,-14.5 117.8,-6 162.6,-6 162.6,-14.5 208.5,-14.5 208.5,31.4 200,31.4 200,76.2 208.5,76.2 208.5,110.8 200,110.8 200,144.2 
		208.5,144.2 208.5,178.8 200,178.8 200,223.6 208.5,223.6 208.5,269.5 162.6,269.5 162.6,261 117.8,261 117.8,269.5 83.2,269.5 
		83.2,261 49.8,261 49.8,269.5 15.2,269.5 15.2,261 -29.6,261 -29.6,269.5 -75.5,269.5 -75.5,223.6 -67,223.6 -67,178.8 
		-75.5,178.8 -75.5,144.2 -67,144.2 -67,110.8 -75.5,110.8 -75.5,76.2 -67,76.2 -67,31.4 -75.5,31.4 	"/>
</g>
<g transform="translate(732.5793424999999, 22.5000185) ">
	<polygon class="st0" points="-128,-14.5 -90.6,-14.5 -90.6,-6 -45.8,-6 -45.8,-14.5 -11.2,-14.5 -11.2,-6 22.2,-6 22.2,-14.5 
		56.8,-14.5 56.8,-6 101.6,-6 101.6,-14.5 139,-14.5 139,30.9 147.5,30.9 147.5,76.8 139,76.8 139,110.2 147.5,110.2 147.5,144.8 
		139,144.8 139,178.3 147.5,178.3 147.5,224.2 139,224.2 139,269.5 101.6,269.5 101.6,261 56.8,261 56.8,269.5 22.2,269.5 22.2,261 
		-11.2,261 -11.2,269.5 -45.8,269.5 -45.8,261 -90.6,261 -90.6,269.5 -128,269.5 -128,224.2 -136.5,224.2 -136.5,178.3 -128,178.3 
		-128,144.8 -136.5,144.8 -136.5,110.2 -128,110.2 -128,76.8 -136.5,76.8 -136.5,30.9 -128,30.9 	"/>
</g>
<g transform="translate(22.5000185, 377.5396805) ">
	<polygon class="st0" points="-6,-67 30.9,-67 30.9,-75.5 76.8,-75.5 76.8,-67 110.2,-67 110.2,-75.5 144.8,-75.5 144.8,-67 
		178.3,-67 178.3,-75.5 224.2,-75.5 224.2,-67 261,-67 261,-30.2 269.5,-30.2 269.5,15.8 261,15.8 261,49.2 269.5,49.2 269.5,83.8 
		261,83.8 261,117.2 269.5,117.2 269.5,163.2 261,163.2 261,200 224.2,200 224.2,208.5 178.3,208.5 178.3,200 144.8,200 
		144.8,208.5 110.2,208.5 110.2,200 76.8,200 76.8,208.5 30.9,208.5 30.9,200 -6,200 -6,163.2 -14.5,163.2 -14.5,117.2 -6,117.2 
		-6,83.8 -14.5,83.8 -14.5,49.2 -6,49.2 -6,15.8 -14.5,15.8 -14.5,-30.2 -6,-30.2 	"/>
</g>
<g transform="translate(377.5396805, 377.5396805) ">
	<polygon class="st0" points="-67,-67 -30.2,-67 -30.2,-75.5 15.8,-75.5 15.8,-67 49.2,-67 49.2,-75.5 83.8,-75.5 83.8,-67 
		117.2,-67 117.2,-75.5 163.2,-75.5 163.2,-67 200,-67 200,-30.2 208.5,-30.2 208.5,15.8 200,15.8 200,49.2 208.5,49.2 208.5,83.8 
		200,83.8 200,117.2 208.5,117.2 208.5,163.2 200,163.2 200,200 163.2,200 163.2,208.5 117.2,208.5 117.2,200 83.8,200 83.8,208.5 
		49.2,208.5 49.2,200 15.8,200 15.8,208.5 -30.2,208.5 -30.2,200 -67,200 -67,163.2 -75.5,163.2 -75.5,117.2 -67,117.2 -67,83.8 
		-75.5,83.8 -75.5,49.2 -67,49.2 -67,15.8 -75.5,15.8 -75.5,-30.2 -67,-30.2 	"/>
</g>
<rect x="705.5" y="117.4" class="st1" width="65.2" height="65.2"/>
</svg>
